M48
;DRILL file {KiCad 5.0.0-fee4fd1~65~ubuntu18.04.1} date Tue Aug 28 14:23:11 2018
;FORMAT={-:-/ absolute / inch / decimal}
FMAT,2
INCH,TZ
T1C0.0312
T2C0.0394
T3C0.0400
T4C0.0433
%
G90
G05
M72
T1
X5.124Y-2.0866
X5.2244Y-2.0866
T2
X4.9244Y-1.6181
X5.0244Y-1.6181
X5.1244Y-1.6181
X5.2244Y-1.6181
X5.3244Y-1.6181
X5.4244Y-1.6181
T3
X4.7244Y-2.2441
X5.7087Y-2.2047
T4
X4.185Y-1.8661
X4.185Y-2.0433
X4.4409Y-1.8661
X4.4409Y-2.0433
X6.1614Y-2.4449
X6.1614Y-2.622
X6.4173Y-2.4449
X6.4173Y-2.622
X6.1614Y-1.8701
X6.1614Y-2.0472
X6.4173Y-1.8701
X6.4173Y-2.0472
X4.1732Y-2.4331
X4.1732Y-2.6102
X4.4291Y-2.4331
X4.4291Y-2.6102
T0
M30
