G04 #@! TF.FileFunction,Copper,L1,Top,Signal*
%FSLAX46Y46*%
G04 Gerber Fmt 4.6, Leading zero omitted, Abs format (unit mm)*
G04 Created by KiCad (PCBNEW 4.0.2+dfsg1-stable) date Wed 09 May 2018 11:30:02 PM PDT*
%MOMM*%
G01*
G04 APERTURE LIST*
%ADD10C,0.100000*%
%ADD11R,2.032000X1.727200*%
%ADD12O,2.032000X1.727200*%
%ADD13R,1.727200X2.032000*%
%ADD14O,1.727200X2.032000*%
%ADD15R,0.900000X1.200000*%
%ADD16C,1.500000*%
%ADD17R,1.524000X1.524000*%
%ADD18C,1.524000*%
%ADD19C,0.600000*%
%ADD20C,0.500000*%
G04 APERTURE END LIST*
D10*
D11*
X153576020Y-91567000D03*
D12*
X153576020Y-94107000D03*
X153576020Y-96647000D03*
X153576020Y-99187000D03*
X153576020Y-101727000D03*
X153576020Y-104267000D03*
X153576020Y-106807000D03*
D13*
X173156020Y-92532000D03*
D14*
X175696020Y-92532000D03*
X178236020Y-92532000D03*
D13*
X173156020Y-95072000D03*
D14*
X175696020Y-95072000D03*
X178236020Y-95072000D03*
D13*
X173156020Y-100152000D03*
D14*
X175696020Y-100152000D03*
X178236020Y-100152000D03*
D13*
X173156020Y-107772000D03*
D14*
X175696020Y-107772000D03*
X178236020Y-107772000D03*
D13*
X173156020Y-105232000D03*
D14*
X175696020Y-105232000D03*
X178236020Y-105232000D03*
D13*
X173156020Y-84912000D03*
D14*
X175696020Y-84912000D03*
X178236020Y-84912000D03*
D13*
X173156020Y-82372000D03*
D14*
X175696020Y-82372000D03*
X178236020Y-82372000D03*
D13*
X173156020Y-102692000D03*
D14*
X175696020Y-102692000D03*
X178236020Y-102692000D03*
D13*
X173156020Y-87452000D03*
D14*
X175696020Y-87452000D03*
X178236020Y-87452000D03*
D13*
X173156020Y-89992000D03*
D14*
X175696020Y-89992000D03*
X178236020Y-89992000D03*
D13*
X173156020Y-112852000D03*
D14*
X175696020Y-112852000D03*
X178236020Y-112852000D03*
D13*
X173156020Y-110312000D03*
D14*
X175696020Y-110312000D03*
X178236020Y-110312000D03*
D13*
X173156020Y-97612000D03*
D14*
X175696020Y-97612000D03*
X178236020Y-97612000D03*
D15*
X157480000Y-85301000D03*
X157480000Y-83101000D03*
X160528000Y-85301000D03*
X160528000Y-83101000D03*
X163322000Y-85301000D03*
X163322000Y-83101000D03*
X165989000Y-85344000D03*
X165989000Y-83144000D03*
X158623000Y-109982000D03*
X158623000Y-112182000D03*
X161544000Y-109982000D03*
X161544000Y-112182000D03*
X164592000Y-109982000D03*
X164592000Y-112182000D03*
X167259000Y-109982000D03*
X167259000Y-112182000D03*
X157480000Y-93218000D03*
X157480000Y-91018000D03*
X160528000Y-93175000D03*
X160528000Y-90975000D03*
X163322000Y-93175000D03*
X163322000Y-90975000D03*
X165989000Y-93175000D03*
X165989000Y-90975000D03*
X158623000Y-105283000D03*
X158623000Y-103083000D03*
X161544000Y-105283000D03*
X161544000Y-103083000D03*
X164592000Y-105240000D03*
X164592000Y-103040000D03*
X167259000Y-105240000D03*
X167259000Y-103040000D03*
D16*
X152603200Y-64465200D03*
X155651200Y-64465200D03*
X158826200Y-64465200D03*
X161874200Y-64465200D03*
X152781000Y-132080000D03*
X155829000Y-132080000D03*
X158623000Y-132080000D03*
X161544000Y-132080000D03*
X152730200Y-71221600D03*
X152781000Y-124968000D03*
X152679400Y-75514200D03*
X152781000Y-118872000D03*
D17*
X179657000Y-72533000D03*
D18*
X177657000Y-72533000D03*
X175657000Y-72533000D03*
X173657000Y-72533000D03*
X179657000Y-74533000D03*
X177657000Y-74533000D03*
X175657000Y-74533000D03*
X173657000Y-74533000D03*
D17*
X173530000Y-124190000D03*
D18*
X175530000Y-124190000D03*
X177530000Y-124190000D03*
X179530000Y-124190000D03*
X173530000Y-122190000D03*
X175530000Y-122190000D03*
X177530000Y-122190000D03*
X179530000Y-122190000D03*
D19*
X157226000Y-100203000D03*
X167640000Y-93726000D03*
X170928410Y-79298800D03*
X168873241Y-78982199D03*
X170484800Y-80238600D03*
X174752000Y-69951600D03*
X169293607Y-79834640D03*
X167915814Y-78132198D03*
X166608810Y-78181200D03*
X170942000Y-120904000D03*
X167085960Y-116890800D03*
X175260000Y-127254000D03*
X158539180Y-117060980D03*
X168884600Y-117419440D03*
X165760400Y-116973854D03*
X164393560Y-116738400D03*
X169931950Y-115013920D03*
X158623000Y-98806000D03*
X161544000Y-98806000D03*
X165735000Y-99695000D03*
X159258000Y-88773000D03*
X162372040Y-89347040D03*
X162052000Y-87249000D03*
X164912040Y-88579960D03*
X159893000Y-107188000D03*
X160274000Y-108331000D03*
X163195000Y-107823000D03*
X166116000Y-107442000D03*
D20*
X172687000Y-89992000D02*
X173156020Y-89992000D01*
X165989000Y-83294000D02*
X172687000Y-89992000D01*
X165989000Y-83144000D02*
X165989000Y-83294000D01*
X155702000Y-98679000D02*
X155702000Y-93540580D01*
X155702000Y-93540580D02*
X153728420Y-91567000D01*
X153728420Y-91567000D02*
X153576020Y-91567000D01*
X157226000Y-100203000D02*
X155702000Y-98679000D01*
X178236020Y-110312000D02*
X178236020Y-110464400D01*
X173156020Y-84912000D02*
X170990810Y-84912000D01*
X167231810Y-81153000D02*
X163426000Y-81153000D01*
X163426000Y-81153000D02*
X161478000Y-83101000D01*
X170990810Y-84912000D02*
X167231810Y-81153000D01*
X161478000Y-83101000D02*
X160528000Y-83101000D01*
X173156020Y-82372000D02*
X169582196Y-82372000D01*
X158430000Y-83101000D02*
X157480000Y-83101000D01*
X167563185Y-80352989D02*
X161178011Y-80352989D01*
X161178011Y-80352989D02*
X158430000Y-83101000D01*
X169582196Y-82372000D02*
X167563185Y-80352989D01*
X173156020Y-87452000D02*
X172337002Y-87452000D01*
X172337002Y-87452000D02*
X166879001Y-81993999D01*
X166879001Y-81993999D02*
X165098999Y-81993999D01*
X165098999Y-81993999D02*
X163991998Y-83101000D01*
X163991998Y-83101000D02*
X163322000Y-83101000D01*
X171766614Y-105232000D02*
X171792420Y-105232000D01*
X168617990Y-110673010D02*
X168617990Y-108380624D01*
X167259000Y-112032000D02*
X168617990Y-110673010D01*
X171792420Y-105232000D02*
X173156020Y-105232000D01*
X168617990Y-108380624D02*
X171766614Y-105232000D01*
X167259000Y-112182000D02*
X167259000Y-112032000D01*
X164444011Y-114132011D02*
X168480377Y-114132011D01*
X161544000Y-112182000D02*
X162494000Y-112182000D01*
X172300388Y-110312000D02*
X173156020Y-110312000D01*
X162494000Y-112182000D02*
X164444011Y-114132011D01*
X168480377Y-114132011D02*
X172300388Y-110312000D01*
X162323021Y-114932021D02*
X168811753Y-114932021D01*
X158623000Y-112182000D02*
X159573000Y-112182000D01*
X171792420Y-112852000D02*
X173156020Y-112852000D01*
X170891774Y-112852000D02*
X171792420Y-112852000D01*
X168811753Y-114932021D02*
X170891774Y-112852000D01*
X159573000Y-112182000D02*
X162323021Y-114932021D01*
X164592000Y-112332000D02*
X165592001Y-113332001D01*
X164592000Y-112182000D02*
X164592000Y-112332000D01*
X170358000Y-111123002D02*
X170358000Y-109206420D01*
X170358000Y-109206420D02*
X171792420Y-107772000D01*
X171792420Y-107772000D02*
X173156020Y-107772000D01*
X165592001Y-113332001D02*
X168149001Y-113332001D01*
X168149001Y-113332001D02*
X170358000Y-111123002D01*
X167640000Y-93726000D02*
X171526000Y-97612000D01*
X171526000Y-97612000D02*
X173156020Y-97612000D01*
X171919010Y-78270990D02*
X171919010Y-78308200D01*
X171919010Y-78308200D02*
X170928410Y-79298800D01*
X171919010Y-78270990D02*
X175657000Y-74533000D01*
X168873241Y-78557935D02*
X168873241Y-78982199D01*
X168873241Y-74512241D02*
X168873241Y-78557935D01*
X158826200Y-64465200D02*
X168873241Y-74512241D01*
X177657000Y-72533000D02*
X177657000Y-71455370D01*
X177657000Y-71455370D02*
X178249371Y-70862999D01*
X178249371Y-70862999D02*
X181733999Y-70862999D01*
X181737000Y-70866000D02*
X181737000Y-74614402D01*
X181733999Y-70862999D02*
X181737000Y-70866000D01*
X181737000Y-74614402D02*
X176112802Y-80238600D01*
X176112802Y-80238600D02*
X170484800Y-80238600D01*
X174752000Y-69951600D02*
X175075600Y-69951600D01*
X175075600Y-69951600D02*
X177657000Y-72533000D01*
X172996399Y-70862999D02*
X173986999Y-70862999D01*
X173986999Y-70862999D02*
X175657000Y-72533000D01*
X166598600Y-64465200D02*
X172996399Y-70862999D01*
X172996399Y-70862999D02*
X171184399Y-70862999D01*
X161874200Y-64465200D02*
X166598600Y-64465200D01*
X169593606Y-79534641D02*
X169293607Y-79834640D01*
X169723243Y-72324155D02*
X169723243Y-79405004D01*
X171184399Y-70862999D02*
X169723243Y-72324155D01*
X169723243Y-79405004D02*
X169593606Y-79534641D01*
X167915814Y-75669154D02*
X167915814Y-77707934D01*
X156711860Y-64465200D02*
X167915814Y-75669154D01*
X155651200Y-64465200D02*
X156711860Y-64465200D01*
X167915814Y-77707934D02*
X167915814Y-78132198D01*
X159029400Y-70891400D02*
X159319010Y-70891400D01*
X159319010Y-70891400D02*
X166608810Y-78181200D01*
X152603200Y-64465200D02*
X159029400Y-70891400D01*
X172900239Y-120877999D02*
X176149000Y-120877999D01*
X176217999Y-120877999D02*
X176149000Y-120877999D01*
X177530000Y-122190000D02*
X176217999Y-120877999D01*
X170942000Y-120904000D02*
X172874238Y-120904000D01*
X172874238Y-120904000D02*
X172900239Y-120877999D01*
X158623000Y-132080000D02*
X158623000Y-125353760D01*
X158623000Y-125353760D02*
X167085960Y-116890800D01*
X175530000Y-126984000D02*
X175530000Y-124190000D01*
X175260000Y-127254000D02*
X175530000Y-126984000D01*
X175530000Y-124698000D02*
X175530000Y-124190000D01*
X152781000Y-124968000D02*
X152781000Y-122819160D01*
X152781000Y-122819160D02*
X158539180Y-117060980D01*
X161544000Y-124760040D02*
X168884600Y-117419440D01*
X161544000Y-132080000D02*
X161544000Y-124760040D01*
X155829000Y-126905254D02*
X165760400Y-116973854D01*
X155829000Y-132080000D02*
X155829000Y-126905254D01*
X152781000Y-132080000D02*
X152781000Y-128350960D01*
X152781000Y-128350960D02*
X164393560Y-116738400D01*
X169931950Y-115013920D02*
X169931950Y-122422050D01*
X171699900Y-124190000D02*
X173530000Y-124190000D01*
X169931950Y-122422050D02*
X171699900Y-124190000D01*
X169631951Y-115313919D02*
X169931950Y-115013920D01*
X152781000Y-118872000D02*
X155854400Y-115798600D01*
X169147270Y-115798600D02*
X169631951Y-115313919D01*
X168605200Y-115798600D02*
X169147270Y-115798600D01*
X155854400Y-115798600D02*
X168605200Y-115798600D01*
X158623000Y-98806000D02*
X157480000Y-97663000D01*
X157480000Y-97663000D02*
X157480000Y-93218000D01*
X158623000Y-103083000D02*
X158623000Y-98806000D01*
X160528000Y-97790000D02*
X161544000Y-98806000D01*
X161544000Y-98806000D02*
X161544000Y-103083000D01*
X160528000Y-93175000D02*
X160528000Y-97790000D01*
X164592000Y-100711000D02*
X164592000Y-100965000D01*
X164592000Y-98679000D02*
X164592000Y-100711000D01*
X164592000Y-100711000D02*
X164719000Y-100711000D01*
X164719000Y-100711000D02*
X165735000Y-99695000D01*
X164592000Y-100965000D02*
X164592000Y-103040000D01*
X163322000Y-97409000D02*
X164592000Y-98679000D01*
X163322000Y-93175000D02*
X163322000Y-97409000D01*
X173156020Y-102692000D02*
X167480000Y-102692000D01*
X167480000Y-102692000D02*
X167132000Y-103040000D01*
X165989000Y-97155000D02*
X167132000Y-98298000D01*
X167132000Y-98298000D02*
X167132000Y-103040000D01*
X165989000Y-93175000D02*
X165989000Y-97155000D01*
X157480000Y-88773000D02*
X159258000Y-88773000D01*
X157480000Y-91018000D02*
X157480000Y-88773000D01*
X157480000Y-88773000D02*
X157480000Y-85301000D01*
X160528000Y-87503000D02*
X162372040Y-89347040D01*
X160528000Y-89875000D02*
X160528000Y-87503000D01*
X160528000Y-87503000D02*
X160528000Y-85301000D01*
X160528000Y-90975000D02*
X160528000Y-89875000D01*
X162052000Y-87249000D02*
X163068000Y-87249000D01*
X163068000Y-87249000D02*
X163322000Y-87503000D01*
X163322000Y-90975000D02*
X163322000Y-87503000D01*
X163322000Y-87503000D02*
X163322000Y-85301000D01*
X165989000Y-87503000D02*
X164912040Y-88579960D01*
X165989000Y-87503000D02*
X165989000Y-90975000D01*
X165989000Y-86444000D02*
X165989000Y-87503000D01*
X165989000Y-85344000D02*
X165989000Y-86444000D01*
X158623000Y-108077000D02*
X158623000Y-107442000D01*
X158623000Y-109982000D02*
X158623000Y-108077000D01*
X158623000Y-108077000D02*
X159004000Y-108077000D01*
X159004000Y-108077000D02*
X159893000Y-107188000D01*
X158623000Y-107442000D02*
X158623000Y-105283000D01*
X160274000Y-108331000D02*
X161163000Y-107442000D01*
X161163000Y-107442000D02*
X161544000Y-107442000D01*
X161544000Y-109982000D02*
X161544000Y-107442000D01*
X161544000Y-107442000D02*
X161544000Y-105283000D01*
X164592000Y-108204000D02*
X163576000Y-108204000D01*
X163576000Y-108204000D02*
X163195000Y-107823000D01*
X164592000Y-109982000D02*
X164592000Y-108204000D01*
X164592000Y-108204000D02*
X164592000Y-105240000D01*
X167259000Y-107823000D02*
X166497000Y-107823000D01*
X166497000Y-107823000D02*
X166116000Y-107442000D01*
X167259000Y-109982000D02*
X167259000Y-107823000D01*
X167259000Y-107823000D02*
X167259000Y-105367000D01*
M02*
