G04 #@! TF.FileFunction,Legend,Bot*
%FSLAX46Y46*%
G04 Gerber Fmt 4.6, Leading zero omitted, Abs format (unit mm)*
G04 Created by KiCad (PCBNEW 4.0.2+dfsg1-stable) date Wed 09 May 2018 11:30:02 PM PDT*
%MOMM*%
G01*
G04 APERTURE LIST*
%ADD10C,0.100000*%
%ADD11C,0.300000*%
%ADD12C,0.150000*%
G04 APERTURE END LIST*
D10*
D11*
X183043557Y-64750371D02*
X183043557Y-63250371D01*
X182543557Y-64321800D01*
X182043557Y-63250371D01*
X182043557Y-64750371D01*
X180686414Y-64750371D02*
X180686414Y-63964657D01*
X180757843Y-63821800D01*
X180900700Y-63750371D01*
X181186414Y-63750371D01*
X181329271Y-63821800D01*
X180686414Y-64678943D02*
X180829271Y-64750371D01*
X181186414Y-64750371D01*
X181329271Y-64678943D01*
X181400700Y-64536086D01*
X181400700Y-64393229D01*
X181329271Y-64250371D01*
X181186414Y-64178943D01*
X180829271Y-64178943D01*
X180686414Y-64107514D01*
X179400700Y-64678943D02*
X179543557Y-64750371D01*
X179829271Y-64750371D01*
X179972128Y-64678943D01*
X180043557Y-64536086D01*
X180043557Y-63964657D01*
X179972128Y-63821800D01*
X179829271Y-63750371D01*
X179543557Y-63750371D01*
X179400700Y-63821800D01*
X179329271Y-63964657D01*
X179329271Y-64107514D01*
X180043557Y-64250371D01*
X178757843Y-64678943D02*
X178614986Y-64750371D01*
X178329271Y-64750371D01*
X178186414Y-64678943D01*
X178114986Y-64536086D01*
X178114986Y-64464657D01*
X178186414Y-64321800D01*
X178329271Y-64250371D01*
X178543557Y-64250371D01*
X178686414Y-64178943D01*
X178757843Y-64036086D01*
X178757843Y-63964657D01*
X178686414Y-63821800D01*
X178543557Y-63750371D01*
X178329271Y-63750371D01*
X178186414Y-63821800D01*
X177686414Y-63750371D02*
X177114985Y-63750371D01*
X177472128Y-63250371D02*
X177472128Y-64536086D01*
X177400700Y-64678943D01*
X177257842Y-64750371D01*
X177114985Y-64750371D01*
X176614985Y-64750371D02*
X176614985Y-63750371D01*
X176614985Y-64036086D02*
X176543557Y-63893229D01*
X176472128Y-63821800D01*
X176329271Y-63750371D01*
X176186414Y-63750371D01*
X175472128Y-64750371D02*
X175614986Y-64678943D01*
X175686414Y-64607514D01*
X175757843Y-64464657D01*
X175757843Y-64036086D01*
X175686414Y-63893229D01*
X175614986Y-63821800D01*
X175472128Y-63750371D01*
X175257843Y-63750371D01*
X175114986Y-63821800D01*
X175043557Y-63893229D01*
X174972128Y-64036086D01*
X174972128Y-64464657D01*
X175043557Y-64607514D01*
X175114986Y-64678943D01*
X175257843Y-64750371D01*
X175472128Y-64750371D01*
X173257843Y-64321800D02*
X172543557Y-64321800D01*
X173400700Y-64750371D02*
X172900700Y-63250371D01*
X172400700Y-64750371D01*
X171257843Y-64750371D02*
X171257843Y-63250371D01*
X171257843Y-64678943D02*
X171400700Y-64750371D01*
X171686414Y-64750371D01*
X171829272Y-64678943D01*
X171900700Y-64607514D01*
X171972129Y-64464657D01*
X171972129Y-64036086D01*
X171900700Y-63893229D01*
X171829272Y-63821800D01*
X171686414Y-63750371D01*
X171400700Y-63750371D01*
X171257843Y-63821800D01*
X169900700Y-64750371D02*
X169900700Y-63964657D01*
X169972129Y-63821800D01*
X170114986Y-63750371D01*
X170400700Y-63750371D01*
X170543557Y-63821800D01*
X169900700Y-64678943D02*
X170043557Y-64750371D01*
X170400700Y-64750371D01*
X170543557Y-64678943D01*
X170614986Y-64536086D01*
X170614986Y-64393229D01*
X170543557Y-64250371D01*
X170400700Y-64178943D01*
X170043557Y-64178943D01*
X169900700Y-64107514D01*
X169186414Y-63750371D02*
X169186414Y-65250371D01*
X169186414Y-63821800D02*
X169043557Y-63750371D01*
X168757843Y-63750371D01*
X168614986Y-63821800D01*
X168543557Y-63893229D01*
X168472128Y-64036086D01*
X168472128Y-64464657D01*
X168543557Y-64607514D01*
X168614986Y-64678943D01*
X168757843Y-64750371D01*
X169043557Y-64750371D01*
X169186414Y-64678943D01*
X168043557Y-63750371D02*
X167472128Y-63750371D01*
X167829271Y-63250371D02*
X167829271Y-64536086D01*
X167757843Y-64678943D01*
X167614985Y-64750371D01*
X167472128Y-64750371D01*
X166400700Y-64678943D02*
X166543557Y-64750371D01*
X166829271Y-64750371D01*
X166972128Y-64678943D01*
X167043557Y-64536086D01*
X167043557Y-63964657D01*
X166972128Y-63821800D01*
X166829271Y-63750371D01*
X166543557Y-63750371D01*
X166400700Y-63821800D01*
X166329271Y-63964657D01*
X166329271Y-64107514D01*
X167043557Y-64250371D01*
X165686414Y-64750371D02*
X165686414Y-63750371D01*
X165686414Y-64036086D02*
X165614986Y-63893229D01*
X165543557Y-63821800D01*
X165400700Y-63750371D01*
X165257843Y-63750371D01*
X182186414Y-67150371D02*
X182686414Y-66436086D01*
X183043557Y-67150371D02*
X183043557Y-65650371D01*
X182472129Y-65650371D01*
X182329271Y-65721800D01*
X182257843Y-65793229D01*
X182186414Y-65936086D01*
X182186414Y-66150371D01*
X182257843Y-66293229D01*
X182329271Y-66364657D01*
X182472129Y-66436086D01*
X183043557Y-66436086D01*
X181686414Y-66150371D02*
X181329271Y-67150371D01*
X180972129Y-66150371D02*
X181329271Y-67150371D01*
X181472129Y-67507514D01*
X181543557Y-67578943D01*
X181686414Y-67650371D01*
X179757843Y-67150371D02*
X179757843Y-66364657D01*
X179829272Y-66221800D01*
X179972129Y-66150371D01*
X180257843Y-66150371D01*
X180400700Y-66221800D01*
X179757843Y-67078943D02*
X179900700Y-67150371D01*
X180257843Y-67150371D01*
X180400700Y-67078943D01*
X180472129Y-66936086D01*
X180472129Y-66793229D01*
X180400700Y-66650371D01*
X180257843Y-66578943D01*
X179900700Y-66578943D01*
X179757843Y-66507514D01*
X179043557Y-66150371D02*
X179043557Y-67150371D01*
X179043557Y-66293229D02*
X178972129Y-66221800D01*
X178829271Y-66150371D01*
X178614986Y-66150371D01*
X178472129Y-66221800D01*
X178400700Y-66364657D01*
X178400700Y-67150371D01*
X176614986Y-67078943D02*
X176400700Y-67150371D01*
X176043557Y-67150371D01*
X175900700Y-67078943D01*
X175829271Y-67007514D01*
X175757843Y-66864657D01*
X175757843Y-66721800D01*
X175829271Y-66578943D01*
X175900700Y-66507514D01*
X176043557Y-66436086D01*
X176329271Y-66364657D01*
X176472129Y-66293229D01*
X176543557Y-66221800D01*
X176614986Y-66078943D01*
X176614986Y-65936086D01*
X176543557Y-65793229D01*
X176472129Y-65721800D01*
X176329271Y-65650371D01*
X175972129Y-65650371D01*
X175757843Y-65721800D01*
X174472129Y-66150371D02*
X174472129Y-67150371D01*
X175114986Y-66150371D02*
X175114986Y-66936086D01*
X175043558Y-67078943D01*
X174900700Y-67150371D01*
X174686415Y-67150371D01*
X174543558Y-67078943D01*
X174472129Y-67007514D01*
X173757843Y-67150371D02*
X173757843Y-66150371D01*
X173757843Y-66293229D02*
X173686415Y-66221800D01*
X173543557Y-66150371D01*
X173329272Y-66150371D01*
X173186415Y-66221800D01*
X173114986Y-66364657D01*
X173114986Y-67150371D01*
X173114986Y-66364657D02*
X173043557Y-66221800D01*
X172900700Y-66150371D01*
X172686415Y-66150371D01*
X172543557Y-66221800D01*
X172472129Y-66364657D01*
X172472129Y-67150371D01*
X171757843Y-67150371D02*
X171757843Y-66150371D01*
X171757843Y-66293229D02*
X171686415Y-66221800D01*
X171543557Y-66150371D01*
X171329272Y-66150371D01*
X171186415Y-66221800D01*
X171114986Y-66364657D01*
X171114986Y-67150371D01*
X171114986Y-66364657D02*
X171043557Y-66221800D01*
X170900700Y-66150371D01*
X170686415Y-66150371D01*
X170543557Y-66221800D01*
X170472129Y-66364657D01*
X170472129Y-67150371D01*
X169186415Y-67078943D02*
X169329272Y-67150371D01*
X169614986Y-67150371D01*
X169757843Y-67078943D01*
X169829272Y-66936086D01*
X169829272Y-66364657D01*
X169757843Y-66221800D01*
X169614986Y-66150371D01*
X169329272Y-66150371D01*
X169186415Y-66221800D01*
X169114986Y-66364657D01*
X169114986Y-66507514D01*
X169829272Y-66650371D01*
X168472129Y-67150371D02*
X168472129Y-66150371D01*
X168472129Y-66436086D02*
X168400701Y-66293229D01*
X168329272Y-66221800D01*
X168186415Y-66150371D01*
X168043558Y-66150371D01*
X167614987Y-67078943D02*
X167472130Y-67150371D01*
X167186415Y-67150371D01*
X167043558Y-67078943D01*
X166972130Y-66936086D01*
X166972130Y-66864657D01*
X167043558Y-66721800D01*
X167186415Y-66650371D01*
X167400701Y-66650371D01*
X167543558Y-66578943D01*
X167614987Y-66436086D01*
X167614987Y-66364657D01*
X167543558Y-66221800D01*
X167400701Y-66150371D01*
X167186415Y-66150371D01*
X167043558Y-66221800D01*
X182186414Y-69550371D02*
X182686414Y-68836086D01*
X183043557Y-69550371D02*
X183043557Y-68050371D01*
X182472129Y-68050371D01*
X182329271Y-68121800D01*
X182257843Y-68193229D01*
X182186414Y-68336086D01*
X182186414Y-68550371D01*
X182257843Y-68693229D01*
X182329271Y-68764657D01*
X182472129Y-68836086D01*
X183043557Y-68836086D01*
X181614986Y-69478943D02*
X181400700Y-69550371D01*
X181043557Y-69550371D01*
X180900700Y-69478943D01*
X180829271Y-69407514D01*
X180757843Y-69264657D01*
X180757843Y-69121800D01*
X180829271Y-68978943D01*
X180900700Y-68907514D01*
X181043557Y-68836086D01*
X181329271Y-68764657D01*
X181472129Y-68693229D01*
X181543557Y-68621800D01*
X181614986Y-68478943D01*
X181614986Y-68336086D01*
X181543557Y-68193229D01*
X181472129Y-68121800D01*
X181329271Y-68050371D01*
X180972129Y-68050371D01*
X180757843Y-68121800D01*
X179329272Y-69550371D02*
X180186415Y-69550371D01*
X179757843Y-69550371D02*
X179757843Y-68050371D01*
X179900700Y-68264657D01*
X180043558Y-68407514D01*
X180186415Y-68478943D01*
X178829272Y-68050371D02*
X177829272Y-68050371D01*
X178472129Y-69550371D01*
X176114987Y-68978943D02*
X174972130Y-68978943D01*
X172257844Y-69550371D02*
X172757844Y-68836086D01*
X173114987Y-69550371D02*
X173114987Y-68050371D01*
X172543559Y-68050371D01*
X172400701Y-68121800D01*
X172329273Y-68193229D01*
X172257844Y-68336086D01*
X172257844Y-68550371D01*
X172329273Y-68693229D01*
X172400701Y-68764657D01*
X172543559Y-68836086D01*
X173114987Y-68836086D01*
X171043559Y-69478943D02*
X171186416Y-69550371D01*
X171472130Y-69550371D01*
X171614987Y-69478943D01*
X171686416Y-69336086D01*
X171686416Y-68764657D01*
X171614987Y-68621800D01*
X171472130Y-68550371D01*
X171186416Y-68550371D01*
X171043559Y-68621800D01*
X170972130Y-68764657D01*
X170972130Y-68907514D01*
X171686416Y-69050371D01*
X170472130Y-68550371D02*
X170114987Y-69550371D01*
X169757845Y-68550371D01*
X168686416Y-68764657D02*
X168472130Y-68836086D01*
X168400702Y-68907514D01*
X168329273Y-69050371D01*
X168329273Y-69264657D01*
X168400702Y-69407514D01*
X168472130Y-69478943D01*
X168614988Y-69550371D01*
X169186416Y-69550371D01*
X169186416Y-68050371D01*
X168686416Y-68050371D01*
X168543559Y-68121800D01*
X168472130Y-68193229D01*
X168400702Y-68336086D01*
X168400702Y-68478943D01*
X168472130Y-68621800D01*
X168543559Y-68693229D01*
X168686416Y-68764657D01*
X169186416Y-68764657D01*
D12*
X166812040Y-90238400D02*
X166787040Y-90238400D01*
X166812040Y-86088400D02*
X166707040Y-86088400D01*
X156662040Y-86088400D02*
X156767040Y-86088400D01*
X156662040Y-90238400D02*
X156767040Y-90238400D01*
X166812040Y-90238400D02*
X166812040Y-86088400D01*
X156662040Y-90238400D02*
X156662040Y-86088400D01*
X166787040Y-90238400D02*
X166787040Y-91613400D01*
X157909180Y-106129020D02*
X157934180Y-106129020D01*
X157909180Y-110279020D02*
X158014180Y-110279020D01*
X168059180Y-110279020D02*
X167954180Y-110279020D01*
X168059180Y-106129020D02*
X167954180Y-106129020D01*
X157909180Y-106129020D02*
X157909180Y-110279020D01*
X168059180Y-106129020D02*
X168059180Y-110279020D01*
X157934180Y-106129020D02*
X157934180Y-104754020D01*
X167189421Y-87401495D02*
X167998945Y-87401495D01*
X168094183Y-87449114D01*
X168141802Y-87496733D01*
X168189421Y-87591971D01*
X168189421Y-87782448D01*
X168141802Y-87877686D01*
X168094183Y-87925305D01*
X167998945Y-87972924D01*
X167189421Y-87972924D01*
X168189421Y-88972924D02*
X168189421Y-88401495D01*
X168189421Y-88687209D02*
X167189421Y-88687209D01*
X167332278Y-88591971D01*
X167427516Y-88496733D01*
X167475135Y-88401495D01*
X156436561Y-107442115D02*
X157246085Y-107442115D01*
X157341323Y-107489734D01*
X157388942Y-107537353D01*
X157436561Y-107632591D01*
X157436561Y-107823068D01*
X157388942Y-107918306D01*
X157341323Y-107965925D01*
X157246085Y-108013544D01*
X156436561Y-108013544D01*
X156531799Y-108442115D02*
X156484180Y-108489734D01*
X156436561Y-108584972D01*
X156436561Y-108823068D01*
X156484180Y-108918306D01*
X156531799Y-108965925D01*
X156627037Y-109013544D01*
X156722275Y-109013544D01*
X156865132Y-108965925D01*
X157436561Y-108394496D01*
X157436561Y-109013544D01*
M02*
