G04 #@! TF.FileFunction,Soldermask,Top*
%FSLAX46Y46*%
G04 Gerber Fmt 4.6, Leading zero omitted, Abs format (unit mm)*
G04 Created by KiCad (PCBNEW 4.0.2+dfsg1-stable) date Wed 09 May 2018 11:30:02 PM PDT*
%MOMM*%
G01*
G04 APERTURE LIST*
%ADD10C,0.100000*%
%ADD11C,2.500000*%
%ADD12R,2.032000X1.727200*%
%ADD13O,2.032000X1.727200*%
%ADD14R,1.727200X2.032000*%
%ADD15O,1.727200X2.032000*%
%ADD16R,0.900000X1.200000*%
%ADD17C,1.500000*%
%ADD18R,1.524000X1.524000*%
%ADD19C,1.524000*%
G04 APERTURE END LIST*
D10*
D11*
X153162000Y-111556800D03*
D12*
X153576020Y-91567000D03*
D13*
X153576020Y-94107000D03*
X153576020Y-96647000D03*
X153576020Y-99187000D03*
X153576020Y-101727000D03*
X153576020Y-104267000D03*
X153576020Y-106807000D03*
D14*
X173156020Y-92532000D03*
D15*
X175696020Y-92532000D03*
X178236020Y-92532000D03*
D14*
X173156020Y-95072000D03*
D15*
X175696020Y-95072000D03*
X178236020Y-95072000D03*
D14*
X173156020Y-100152000D03*
D15*
X175696020Y-100152000D03*
X178236020Y-100152000D03*
D14*
X173156020Y-107772000D03*
D15*
X175696020Y-107772000D03*
X178236020Y-107772000D03*
D14*
X173156020Y-105232000D03*
D15*
X175696020Y-105232000D03*
X178236020Y-105232000D03*
D14*
X173156020Y-84912000D03*
D15*
X175696020Y-84912000D03*
X178236020Y-84912000D03*
D14*
X173156020Y-82372000D03*
D15*
X175696020Y-82372000D03*
X178236020Y-82372000D03*
D14*
X173156020Y-102692000D03*
D15*
X175696020Y-102692000D03*
X178236020Y-102692000D03*
D14*
X173156020Y-87452000D03*
D15*
X175696020Y-87452000D03*
X178236020Y-87452000D03*
D14*
X173156020Y-89992000D03*
D15*
X175696020Y-89992000D03*
X178236020Y-89992000D03*
D14*
X173156020Y-112852000D03*
D15*
X175696020Y-112852000D03*
X178236020Y-112852000D03*
D14*
X173156020Y-110312000D03*
D15*
X175696020Y-110312000D03*
X178236020Y-110312000D03*
D14*
X173156020Y-97612000D03*
D15*
X175696020Y-97612000D03*
X178236020Y-97612000D03*
D16*
X157480000Y-85301000D03*
X157480000Y-83101000D03*
X160528000Y-85301000D03*
X160528000Y-83101000D03*
X163322000Y-85301000D03*
X163322000Y-83101000D03*
X165989000Y-85344000D03*
X165989000Y-83144000D03*
X158623000Y-109982000D03*
X158623000Y-112182000D03*
X161544000Y-109982000D03*
X161544000Y-112182000D03*
X164592000Y-109982000D03*
X164592000Y-112182000D03*
X167259000Y-109982000D03*
X167259000Y-112182000D03*
X157480000Y-93218000D03*
X157480000Y-91018000D03*
X160528000Y-93175000D03*
X160528000Y-90975000D03*
X163322000Y-93175000D03*
X163322000Y-90975000D03*
X165989000Y-93175000D03*
X165989000Y-90975000D03*
X158623000Y-105283000D03*
X158623000Y-103083000D03*
X161544000Y-105283000D03*
X161544000Y-103083000D03*
X164592000Y-105240000D03*
X164592000Y-103040000D03*
X167259000Y-105240000D03*
X167259000Y-103040000D03*
D17*
X152603200Y-64465200D03*
X155651200Y-64465200D03*
X158826200Y-64465200D03*
X161874200Y-64465200D03*
X152781000Y-132080000D03*
X155829000Y-132080000D03*
X158623000Y-132080000D03*
X161544000Y-132080000D03*
X152730200Y-71221600D03*
X152781000Y-124968000D03*
X152679400Y-75514200D03*
X152781000Y-118872000D03*
D11*
X153162000Y-86156800D03*
D18*
X179657000Y-72533000D03*
D19*
X177657000Y-72533000D03*
X175657000Y-72533000D03*
X173657000Y-72533000D03*
X179657000Y-74533000D03*
X177657000Y-74533000D03*
X175657000Y-74533000D03*
X173657000Y-74533000D03*
D18*
X173530000Y-124190000D03*
D19*
X175530000Y-124190000D03*
X177530000Y-124190000D03*
X179530000Y-124190000D03*
X173530000Y-122190000D03*
X175530000Y-122190000D03*
X177530000Y-122190000D03*
X179530000Y-122190000D03*
M02*
