M48
;DRILL file {KiCad 4.0.2+dfsg1-stable} date Wed 09 May 2018 11:29:47 PM PDT
;FORMAT={-:-/ absolute / inch / decimal}
FMAT,2
INCH,TZ
T1C0.016
T2C0.030
T3C0.031
T4C0.040
%
G90
G05
M72
T1
X6.19Y-3.945
X6.2417Y-4.6087
X6.245Y-3.89
X6.27Y-3.495
X6.295Y-4.22
X6.31Y-4.265
X6.36Y-3.89
X6.38Y-3.435
X6.3926Y-3.5176
X6.425Y-4.245
X6.4722Y-4.596
X6.4926Y-3.4874
X6.525Y-3.925
X6.526Y-4.6053
X6.54Y-4.23
X6.5594Y-3.078
X6.5782Y-4.602
X6.6Y-3.69
X6.6109Y-3.0761
X6.6486Y-3.1095
X6.649Y-4.6228
X6.6651Y-3.1431
X6.6902Y-4.5281
X6.712Y-3.159
X6.7295Y-3.122
X6.73Y-4.76
X6.88Y-2.754
X6.9Y-5.01
T2
X6.8319Y-4.8106
X6.8319Y-4.8894
X6.8369Y-2.8556
X6.8369Y-2.9344
X6.9106Y-4.8106
X6.9106Y-4.8894
X6.9156Y-2.8556
X6.9156Y-2.9344
X6.9894Y-4.8106
X6.9894Y-4.8894
X6.9944Y-2.8556
X6.9944Y-2.9344
X7.0681Y-4.8106
X7.0681Y-4.8894
X7.0731Y-2.8556
X7.0731Y-2.9344
T3
X6.008Y-2.538
X6.011Y-2.973
X6.013Y-2.804
X6.015Y-4.68
X6.015Y-4.92
X6.015Y-5.2
X6.128Y-2.538
X6.135Y-5.2
X6.245Y-5.2
X6.253Y-2.538
X6.36Y-5.2
X6.373Y-2.538
T4
X6.0463Y-3.605
X6.0463Y-3.705
X6.0463Y-3.805
X6.0463Y-3.905
X6.0463Y-4.005
X6.0463Y-4.105
X6.0463Y-4.205
X6.8172Y-3.243
X6.8172Y-3.343
X6.8172Y-3.443
X6.8172Y-3.543
X6.8172Y-3.643
X6.8172Y-3.743
X6.8172Y-3.843
X6.8172Y-3.943
X6.8172Y-4.043
X6.8172Y-4.143
X6.8172Y-4.243
X6.8172Y-4.343
X6.8172Y-4.443
X6.9172Y-3.243
X6.9172Y-3.343
X6.9172Y-3.443
X6.9172Y-3.543
X6.9172Y-3.643
X6.9172Y-3.743
X6.9172Y-3.843
X6.9172Y-3.943
X6.9172Y-4.043
X6.9172Y-4.143
X6.9172Y-4.243
X6.9172Y-4.343
X6.9172Y-4.443
X7.0172Y-3.243
X7.0172Y-3.343
X7.0172Y-3.443
X7.0172Y-3.543
X7.0172Y-3.643
X7.0172Y-3.743
X7.0172Y-3.843
X7.0172Y-3.943
X7.0172Y-4.043
X7.0172Y-4.143
X7.0172Y-4.243
X7.0172Y-4.343
X7.0172Y-4.443
T0
M30
